<mxfile host="app.diagrams.net" modified="2024-02-05T10:55:22.168Z" agent="Mozilla/5.0 (Windows NT 10.0; Win64; x64) AppleWebKit/537.36 (KHTML, like Gecko) Chrome/120.0.0.0 Safari/537.36" etag="A1UOKBu2MH3KaxXaoRpz" version="23.1.1" type="device">
  <diagram name="Page-1" id="7g9NDynxjmeaYfLjRXH7">
    <mxGraphModel dx="1050" dy="565" grid="1" gridSize="10" guides="1" tooltips="1" connect="1" arrows="1" fold="1" page="1" pageScale="1" pageWidth="827" pageHeight="1169" math="0" shadow="0">
      <root>
        <mxCell id="0" />
        <mxCell id="1" parent="0" />
        <mxCell id="XrWptc2bsMhl7pwrli30-1" value="Client" style="rounded=0;whiteSpace=wrap;html=1;" vertex="1" parent="1">
          <mxGeometry x="96" y="250" width="120" height="60" as="geometry" />
        </mxCell>
        <mxCell id="XrWptc2bsMhl7pwrli30-2" value="Internet" style="ellipse;shape=cloud;whiteSpace=wrap;html=1;" vertex="1" parent="1">
          <mxGeometry x="310" y="240" width="120" height="80" as="geometry" />
        </mxCell>
        <mxCell id="XrWptc2bsMhl7pwrli30-3" value="Bdd" style="shape=cylinder3;whiteSpace=wrap;html=1;boundedLbl=1;backgroundOutline=1;size=15;" vertex="1" parent="1">
          <mxGeometry x="690" y="240" width="60" height="80" as="geometry" />
        </mxCell>
        <mxCell id="XrWptc2bsMhl7pwrli30-4" value="Serveur d&#39;Applications" style="whiteSpace=wrap;html=1;aspect=fixed;" vertex="1" parent="1">
          <mxGeometry x="510" y="240" width="80" height="80" as="geometry" />
        </mxCell>
        <mxCell id="XrWptc2bsMhl7pwrli30-6" value="" style="shape=flexArrow;endArrow=classic;startArrow=classic;html=1;rounded=0;" edge="1" parent="1">
          <mxGeometry width="100" height="100" relative="1" as="geometry">
            <mxPoint x="218" y="280" as="sourcePoint" />
            <mxPoint x="318" y="280" as="targetPoint" />
          </mxGeometry>
        </mxCell>
        <mxCell id="XrWptc2bsMhl7pwrli30-7" value="" style="shape=flexArrow;endArrow=classic;startArrow=classic;html=1;rounded=0;" edge="1" parent="1">
          <mxGeometry width="100" height="100" relative="1" as="geometry">
            <mxPoint x="414" y="280" as="sourcePoint" />
            <mxPoint x="514" y="280" as="targetPoint" />
          </mxGeometry>
        </mxCell>
        <mxCell id="XrWptc2bsMhl7pwrli30-8" value="" style="shape=flexArrow;endArrow=classic;startArrow=classic;html=1;rounded=0;" edge="1" parent="1">
          <mxGeometry width="100" height="100" relative="1" as="geometry">
            <mxPoint x="590" y="279.5" as="sourcePoint" />
            <mxPoint x="690" y="279.5" as="targetPoint" />
          </mxGeometry>
        </mxCell>
      </root>
    </mxGraphModel>
  </diagram>
</mxfile>
